HIERARCHY
ROOT Hips
{
	OFFSET 0.00000 0.00000 0.00000
	CHANNELS 6 Xposition Yposition Zposition Zrotation Yrotation Xrotation 
	JOINT LHipJoint
	{
		OFFSET 0 0 0
		CHANNELS 3 Zrotation Yrotation Xrotation
		JOINT LeftHip
		{
			OFFSET 1.17584 -1.63585 1.00361
			CHANNELS 3 Zrotation Yrotation Xrotation
			JOINT LeftKnee
			{
				OFFSET 2.23889 -6.15131 0.00000
				CHANNELS 3 Zrotation Yrotation Xrotation
				JOINT LeftAnkle
				{
					OFFSET 2.65161 -7.28525 0.00000
					CHANNELS 3 Zrotation Yrotation Xrotation
					JOINT LeftToe
					{
						OFFSET 0.24898 -0.68407 1.57235
						CHANNELS 3 Zrotation Yrotation Xrotation
						End Site
						{
							OFFSET 0.00000 -0.00000 0.85838
						}
					}
				}
			}
		}
	}
	JOINT RHipJoint
	{
		OFFSET 0 0 0
		CHANNELS 3 Zrotation Yrotation Xrotation
		JOINT RightHip
		{
			OFFSET -1.15592 -1.63585 1.00361
			CHANNELS 3 Zrotation Yrotation Xrotation
			JOINT RightKnee
			{
				OFFSET -2.34071 -6.43104 0.00000
				CHANNELS 3 Zrotation Yrotation Xrotation
				JOINT RightAnkle
				{
					OFFSET -2.59113 -7.11908 0.00000
					CHANNELS 3 Zrotation Yrotation Xrotation
					JOINT RightToe
					{
						OFFSET -0.17867 -0.49089 1.70981
						CHANNELS 3 Zrotation Yrotation Xrotation
						End Site
						{
							OFFSET -0.00000 -0.00000 0.89861
						}
					}
				}
			}
		}
	}
	JOINT lowerback
	{
		OFFSET 0 0 0
		CHANNELS 3 Zrotation Yrotation Xrotation
		JOINT Chest
		{
			OFFSET -0.02255 1.90764 -0.16605
			CHANNELS 3 Zrotation Yrotation Xrotation
			JOINT Chest2
			{
				OFFSET -0.00365 1.92150 -0.04898
				CHANNELS 3 Zrotation Yrotation Xrotation
				JOINT lowerneck
				{
					OFFSET 0 0 0
					CHANNELS 3 Zrotation Yrotation Xrotation
					JOINT Neck
					{
						OFFSET 0.00372 1.59170 0.08694
						CHANNELS 3 Zrotation Yrotation Xrotation
						JOINT Head
						{
							OFFSET 0.12558 1.58643 -0.08078
							CHANNELS 3 Zrotation Yrotation Xrotation
							End Site
							{
								OFFSET 0.04211 1.60835 -0.03803
							}
						}
					}
				}
				JOINT LeftCollar
				{
					OFFSET 0 0 0
					CHANNELS 3 Zrotation Yrotation Xrotation
					JOINT LeftShoulder
					{
						OFFSET 3.69324 0.96316 0.19077
CHANNELS 3 Zrotation Xrotation Yrotation
						JOINT LeftElbow
						{
OFFSET 0 -4.877960 -0.000000
CHANNELS 3 Zrotation Xrotation Yrotation
							JOINT LeftWrist
							{
OFFSET 0 -3.231690 0.000000
CHANNELS 3 Zrotation Xrotation Yrotation
								JOINT lhand
								{
									OFFSET 0 0 0
CHANNELS 3 Zrotation Xrotation Yrotation
									JOINT LFingers
									{
OFFSET 0 -0.731320 0.000000
CHANNELS 3 Zrotation Xrotation Yrotation
										End Site
										{
OFFSET 0 -0.589610 0.000000
										}
									}
								}
								JOINT LThumb
								{
OFFSET 0 0.000000 0.000000
CHANNELS 3 Zrotation Xrotation Yrotation
									End Site
									{
OFFSET 0 -0.598610 0.598610
									}
								}
							}
						}
					}
				}
				JOINT RightCollar
				{
					OFFSET 0 0 0
					CHANNELS 3 Zrotation Yrotation Xrotation
					JOINT RightShoulder
					{
						OFFSET -3.66103 0.75145 0.08281
CHANNELS 3 Zrotation Xrotation Yrotation
						JOINT RightElbow
						{
OFFSET 0 -4.914300 0.000000
CHANNELS 3 Zrotation Xrotation Yrotation
							JOINT RightWrist
							{
OFFSET 0 -3.290930 0.000000
CHANNELS 3 Zrotation Xrotation Yrotation
								JOINT rhand
								{
									OFFSET 0 0 0
CHANNELS 3 Zrotation Xrotation Yrotation
									JOINT RFingers
									{
OFFSET 0 -0.545120 0.000000
CHANNELS 3 Zrotation Xrotation Yrotation
										End Site
										{
OFFSET 0 -0.439490 0.000000
										}
									}
								}
								JOINT RThumb
								{
OFFSET 0 0.000000 0.000000
CHANNELS 3 Zrotation Xrotation Yrotation
									End Site
									{
OFFSET 0 -0.446200 0.446200
									}
								}
							}
						}
					}
				}
			}
		}
	}
}
MOTION
Frames: 4
Frame Time: 0.008333333333333333
22.821690 15.421778 -6.910475 -2.097641 -44.397263 10.649879 0.000000 0.000000 0.000000 -26.387318 12.000500 11.333804 0.492256 4.494279 12.472411 3.465825 -4.194442 -34.336636 1.406322 -7.500895 -21.208064 0.000000 0.000000 0.000000 6.982056 15.954964 -56.635766 -4.631952 -12.956858 39.207361 -0.153209 4.174356 -7.109065 -0.874322 5.959311 -16.667067 -6.834373 -3.526531 -3.574816 0.102301 -4.369880 1.386981 3.603271 -2.341402 3.969189 -2.703943 -5.531181 1.284214 9.008232 -6.861198 -11.467165 3.739010 -3.727341 -3.550722 0.000000 0.000000 0.000000 25.971798 4.557070 -60.916261 57.371117 -55.567491 32.163106 46.204582 -20.483871 28.890990 0.000000 0.000000 0.000000 -7.125000 0.000000 0.000000 8.678143 -8.195194 9.933569 0.000000 0.000000 0.000000 -6.003162 8.987692 37.919409 -33.957456 -44.049956 -14.084640 -38.157838 19.406649 15.090223 0.000000 0.000000 0.000000 7.125000 0.000000 0.000000 -10.394052 48.627012 0.938546
22.571861 15.440644 -6.733275 -2.154239 -44.966086 10.277514 0.000000 0.000000 0.000000 -25.589899 13.409586 13.519299 0.363873 3.872461 10.718448 2.908362 -4.429756 -31.270611 1.544929 -7.844960 -22.244595 0.000000 0.000000 0.000000 7.354651 16.391765 -56.250668 -4.511321 -12.811274 38.666394 -0.221373 3.622613 -8.370946 -1.038297 6.479430 -18.182549 -6.310804 -3.695581 -3.884166 0.140702 -4.601575 1.346107 3.313686 -2.445806 4.087445 -2.710283 -5.252827 1.293787 8.705943 -6.519178 -11.205374 3.616893 -3.538673 -3.492917 0.000000 0.000000 0.000000 25.784975 5.127779 -61.868692 58.081219 -55.776318 32.749572 45.483606 -20.001842 29.168726 0.000000 0.000000 0.000000 -7.125000 0.000000 0.000000 8.209230 -8.193302 9.385532 0.000000 0.000000 0.000000 -5.516415 11.734872 37.625709 -35.782493 -45.359517 -15.368594 -37.523028 16.369424 16.546135 0.000000 0.000000 0.000000 7.125000 0.000000 0.000000 -9.785161 50.258450 1.276263
22.310076 15.470966 -6.544700 -2.291532 -45.429440 9.905787 0.000000 0.000000 0.000000 -24.541751 14.715893 15.181646 0.320120 3.636713 10.056815 2.339988 -5.199258 -27.800685 1.668884 -8.139428 -23.138272 0.000000 0.000000 0.000000 8.311610 16.214691 -55.712791 -4.429077 -12.710494 38.294147 -0.297121 3.312125 -9.689652 -1.156086 6.826370 -19.202029 -5.768682 -3.886800 -4.189684 0.193150 -4.869617 1.248317 3.026413 -2.564776 4.143661 -2.587961 -4.995363 1.337340 8.256987 -6.217106 -10.745335 3.414225 -3.365476 -3.376637 0.000000 0.000000 0.000000 25.438983 6.031271 -62.879919 58.756493 -55.969399 33.308415 45.211368 -19.988859 29.491555 0.000000 0.000000 0.000000 -7.125000 0.000000 0.000000 7.971387 -8.445476 9.138280 0.000000 0.000000 0.000000 -5.315561 14.597686 37.810622 -37.305404 -46.389903 -16.460822 -37.125636 14.433828 18.476641 0.000000 0.000000 0.000000 7.125000 0.000000 0.000000 -9.378358 52.476925 1.738206
22.040317 15.508462 -6.346154 -2.529247 -45.840610 9.536346 0.000000 0.000000 0.000000 -23.333013 15.740630 15.818023 0.407775 4.093268 11.340055 1.799962 -6.314959 -24.111999 1.779372 -8.390469 -23.906556 0.000000 0.000000 0.000000 9.949846 15.318996 -55.052827 -4.387319 -12.658709 38.104039 -0.362297 3.389954 -10.707930 -1.139370 6.777891 -19.059291 -5.128353 -4.042726 -4.462539 0.190082 -5.100923 1.107738 2.634207 -2.659943 4.114459 -2.356110 -4.772949 1.414248 7.836863 -5.960616 -10.067750 3.197146 -3.217106 -3.189882 0.000000 0.000000 0.000000 25.082763 7.230597 -64.042503 59.457207 -56.163298 33.889942 45.309865 -20.695305 29.786353 0.000000 0.000000 0.000000 -7.125000 0.000000 0.000000 7.941911 -8.828941 9.148521 0.000000 0.000000 0.000000 -5.166306 17.541677 38.107390 -38.463195 -47.131308 -17.304669 -37.002940 13.515665 20.296787 0.000000 0.000000 0.000000 7.125000 0.000000 0.000000 -9.205545 54.592982 2.182756
